<?xml version="1.0" encoding="utf-8"?>
<!-- Generator: Adobe Illustrator 18.1.1, SVG Export Plug-In . SVG Version: 6.00 Build 0)  -->
<svg version="1.1" id="Слой_1" xmlns="http://www.w3.org/2000/svg" xmlns:xlink="http://www.w3.org/1999/xlink" x="0px" y="0px"
	 viewBox="0 0 49.8 33.8" enable-background="new 0 0 49.8 33.8" xml:space="preserve">
<g>
	<g>
		<path fill="#009344" d="M11.3,7.6l-7.5,0C1,7.7,0,9.7,0,10.4v0.1v0.4v9.5c0,0.6,0.6,1.1,1.2,1.1c0.7,0,1.2-0.5,1.2-1.1v-7.2h1.1
			v6.9c0,0.1,0,0.2,0,0.3v11.7c0,0.9,0.8,1.6,1.7,1.6c1,0,1.7-0.7,1.7-1.6V22.1h0.9v10.1c0,0.9,0.8,1.6,1.7,1.6c1,0,1.7-0.7,1.7-1.6
			v-12V20v-6.8h0.9v7.2c0,0.6,0.6,1.1,1.3,1.1c0.7,0,1.3-0.5,1.3-1.1v-9.5v-0.4v-0.2C15,9.4,13.7,7.6,11.3,7.6z"/>
		<path fill="#009344" d="M7.5,7c1.6,0,3-1.6,3-3.5c0-1.9-1.3-3.5-3-3.5c-1.7,0-3,1.6-3,3.5C4.5,5.4,5.8,7,7.5,7z"/>
	</g>
	<g>
		<path fill="#009344" d="M28.8,7.6l-7.5,0c-2.8,0.1-3.8,2.1-3.8,2.8v0.1v0.4v9.5c0,0.6,0.6,1.1,1.2,1.1c0.7,0,1.2-0.5,1.2-1.1v-7.2
			H21v6.9c0,0.1,0,0.2,0,0.3v11.7c0,0.9,0.8,1.6,1.7,1.6c1,0,1.7-0.7,1.7-1.6V22.1h0.9v10.1c0,0.9,0.8,1.6,1.7,1.6s1.7-0.7,1.7-1.6
			v-12V20v-6.8h0.9v7.2c0,0.6,0.6,1.1,1.3,1.1c0.7,0,1.3-0.5,1.3-1.1v-9.5v-0.4v-0.2C32.4,9.4,31.1,7.6,28.8,7.6z"/>
		<path fill="#009344" d="M24.9,7c1.6,0,3-1.6,3-3.5c0-1.9-1.3-3.5-3-3.5c-1.7,0-3,1.6-3,3.5C21.9,5.4,23.3,7,24.9,7z"/>
	</g>
	<g>
		<path fill="#009344" d="M46.2,7.6l-7.5,0c-2.8,0.1-3.8,2.1-3.8,2.8v0.1v0.4v9.5c0,0.6,0.6,1.1,1.2,1.1c0.7,0,1.2-0.5,1.2-1.1v-7.2
			h1.1v6.9c0,0.1,0,0.2,0,0.3v11.7c0,0.9,0.8,1.6,1.7,1.6c1,0,1.7-0.7,1.7-1.6V22.1h0.9v10.1c0,0.9,0.8,1.6,1.7,1.6
			c1,0,1.7-0.7,1.7-1.6v-12V20v-6.8h0.9v7.2c0,0.6,0.6,1.1,1.3,1.1c0.7,0,1.3-0.5,1.3-1.1v-9.5v-0.4v-0.2
			C49.8,9.4,48.6,7.6,46.2,7.6z"/>
		<path fill="#009344" d="M42.4,7c1.6,0,3-1.6,3-3.5c0-1.9-1.3-3.5-3-3.5c-1.7,0-3,1.6-3,3.5C39.4,5.4,40.7,7,42.4,7z"/>
	</g>
</g>
</svg>
