<?xml version="1.0" encoding="utf-8"?>
<!-- Generator: Adobe Illustrator 18.1.1, SVG Export Plug-In . SVG Version: 6.00 Build 0)  -->
<svg version="1.1" id="Слой_1" xmlns="http://www.w3.org/2000/svg" xmlns:xlink="http://www.w3.org/1999/xlink" x="0px" y="0px"
	 viewBox="0 0 50.8 78.1" enable-background="new 0 0 50.8 78.1" xml:space="preserve">
<g>
	<g>
		<path fill="#E18C44" d="M47.2,6.5l-7.5,0c-2.8,0.1-3.8,2.3-3.8,3.1v0.1v0.5v10.5c0,0.7,0.6,1.2,1.2,1.2s1.2-0.6,1.2-1.2v-9.1h1.1
			v8.7c0,0.1,0,0.2,0,0.3v15.6c0,1,0.8,1.8,1.7,1.8c1,0,1.7-0.8,1.7-1.8V22.5h0.9v13.7c0,1,0.8,1.8,1.7,1.8c1,0,1.7-0.8,1.7-1.8
			V20.3v-0.1v-8.6h0.9v9.1c0,0.7,0.6,1.2,1.3,1.2c0.7,0,1.3-0.6,1.3-1.2V10.2V9.7V9.5C50.8,8.5,49.6,6.5,47.2,6.5z"/>
		<path fill="#E18C44" d="M43.4,6c1.7,0,3-1.3,3-3c0-1.6-1.3-3-3-3c-1.7,0-3,1.3-3,3C40.4,4.6,41.7,6,43.4,6z"/>
	</g>
	<g>
		<path fill="#E18C44" d="M11.3,6.5l-7.5,0C1,6.6,0,8.8,0,9.6v0.1v0.5v10.5C0,21.4,0.6,22,1.2,22c0.7,0,1.2-0.6,1.2-1.2v-9.1h1.1
			v8.7c0,0.1,0,0.2,0,0.3v15.6c0,1,0.8,1.8,1.7,1.8c1,0,1.7-0.8,1.7-1.8V22.5h0.9v13.7c0,1,0.8,1.8,1.7,1.8c1,0,1.7-0.8,1.7-1.8
			V20.3v-0.1v-8.6h0.9v9.1c0,0.7,0.6,1.2,1.3,1.2c0.7,0,1.3-0.6,1.3-1.2V10.2V9.7V9.5C15,8.5,13.7,6.5,11.3,6.5z"/>
		<circle fill="#E18C44" cx="7.5" cy="3" r="3"/>
	</g>
	<g>
		<path fill="#E18C44" d="M29.1,6.5l-7.5,0c-2.8,0.1-3.8,2.3-3.8,3.1v0.1v0.5v10.5c0,0.7,0.6,1.2,1.2,1.2c0.7,0,1.2-0.6,1.2-1.2
			v-9.1h1.1v8.7c0,0.1,0,0.2,0,0.3v15.6c0,1,0.8,1.8,1.7,1.8c1,0,1.7-0.8,1.7-1.8V22.5h0.9v13.7c0,1,0.8,1.8,1.7,1.8
			c1,0,1.7-0.8,1.7-1.8V20.3v-0.1v-8.6h0.9v9.1c0,0.7,0.6,1.2,1.3,1.2c0.7,0,1.3-0.6,1.3-1.2V10.2V9.7V9.5
			C32.8,8.5,31.5,6.5,29.1,6.5z"/>
		<circle fill="#E18C44" cx="25.3" cy="3" r="3"/>
	</g>
	<g>
		<path fill="#E18C44" d="M47.2,46.6l-7.5,0c-2.8,0.1-3.8,2.3-3.8,3.1v0.1v0.5v10.5c0,0.7,0.6,1.2,1.2,1.2s1.2-0.6,1.2-1.2v-9.1h1.1
			v8.7c0,0.1,0,0.2,0,0.3v15.6c0,1,0.8,1.8,1.7,1.8c1,0,1.7-0.8,1.7-1.8V62.6h0.9v13.7c0,1,0.8,1.8,1.7,1.8c1,0,1.7-0.8,1.7-1.8
			V60.4v-0.1v-8.6h0.9v9.1c0,0.7,0.6,1.2,1.3,1.2c0.7,0,1.3-0.6,1.3-1.2V50.2v-0.5v-0.3C50.8,48.6,49.6,46.6,47.2,46.6z"/>
		<path fill="#E18C44" d="M43.4,46c1.7,0,3-1.3,3-3c0-1.6-1.3-3-3-3c-1.7,0-3,1.3-3,3C40.4,44.7,41.7,46,43.4,46z"/>
	</g>
	<g>
		<path fill="#E18C44" d="M11.3,46.6l-7.5,0C1,46.6,0,48.9,0,49.6v0.1v0.5v10.5C0,61.4,0.6,62,1.2,62c0.7,0,1.2-0.6,1.2-1.2v-9.1
			h1.1v8.7c0,0.1,0,0.2,0,0.3v15.6c0,1,0.8,1.8,1.7,1.8c1,0,1.7-0.8,1.7-1.8V62.6h0.9v13.7c0,1,0.8,1.8,1.7,1.8c1,0,1.7-0.8,1.7-1.8
			V60.4v-0.1v-8.6h0.9v9.1c0,0.7,0.6,1.2,1.3,1.2c0.7,0,1.3-0.6,1.3-1.2V50.2v-0.5v-0.3C15,48.6,13.7,46.6,11.3,46.6z"/>
		<circle fill="#E18C44" cx="7.5" cy="43" r="3"/>
	</g>
	<g>
		<path fill="#E18C44" d="M29.1,46.6l-7.5,0c-2.8,0.1-3.8,2.3-3.8,3.1v0.1v0.5v10.5c0,0.7,0.6,1.2,1.2,1.2c0.7,0,1.2-0.6,1.2-1.2
			v-9.1h1.1v8.7c0,0.1,0,0.2,0,0.3v15.6c0,1,0.8,1.8,1.7,1.8c1,0,1.7-0.8,1.7-1.8V62.6h0.9v13.7c0,1,0.8,1.8,1.7,1.8
			c1,0,1.7-0.8,1.7-1.8V60.4v-0.1v-8.6h0.9v9.1c0,0.7,0.6,1.2,1.3,1.2c0.7,0,1.3-0.6,1.3-1.2V50.2v-0.5v-0.3
			C32.8,48.6,31.5,46.6,29.1,46.6z"/>
		<circle fill="#E18C44" cx="25.3" cy="43" r="3"/>
	</g>
</g>
</svg>
