<?xml version="1.0" encoding="utf-8"?>
<!-- Generator: Adobe Illustrator 18.1.1, SVG Export Plug-In . SVG Version: 6.00 Build 0)  -->
<svg version="1.1" id="Слой_1" xmlns="http://www.w3.org/2000/svg" xmlns:xlink="http://www.w3.org/1999/xlink" x="0px" y="0px"
	 viewBox="0 0 33.4 72" enable-background="new 0 0 33.4 72" xml:space="preserve">
<g>
	<g>
		<path fill="#E18C44" d="M11.3,40.5l-7.5,0C1,40.5,0,42.8,0,43.5v0.1v0.5v10.5c0,0.7,0.6,1.2,1.2,1.2c0.7,0,1.2-0.6,1.2-1.2v-9.1
			h1.1v8.7c0,0.1,0,0.2,0,0.3v15.6c0,1,0.8,1.8,1.7,1.8c1,0,1.7-0.8,1.7-1.8V56.4h0.9v13.7c0,1,0.8,1.8,1.7,1.8c1,0,1.7-0.8,1.7-1.8
			V54.3v-0.1v-8.6h0.9v9.1c0,0.7,0.6,1.2,1.3,1.2c0.7,0,1.3-0.6,1.3-1.2V44.1v-0.5v-0.3C15,42.4,13.7,40.5,11.3,40.5z"/>
		<circle fill="#E18C44" cx="7.5" cy="36.9" r="3"/>
	</g>
	<g>
		<path fill="#009344" d="M29.2,47.4l-7.5,0c-2.8,0.1-3.8,2-3.8,2.6v0.1v0.4v8.9c0,0.6,0.6,1,1.2,1c0.7,0,1.2-0.5,1.2-1v-6.7h1.1
			v6.4c0,0.1,0,0.2,0,0.3v11c0,0.8,0.8,1.5,1.7,1.5c1,0,1.7-0.7,1.7-1.5v-9.4h0.9v9.4c0,0.8,0.8,1.5,1.7,1.5c1,0,1.7-0.7,1.7-1.5
			V59.1V59v-6.3h0.9v6.7c0,0.6,0.6,1,1.3,1c0.7,0,1.3-0.5,1.3-1v-8.9v-0.4v-0.2C32.8,49.1,31.6,47.4,29.2,47.4z"/>
		<path fill="#009344" d="M25.4,46.8c1.6,0,3-1.5,3-3.3c0-1.8-1.3-3.3-3-3.3c-1.7,0-3,1.5-3,3.3C22.4,45.4,23.7,46.8,25.4,46.8z"/>
	</g>
	<g>
		<path fill="#009344" d="M11.8,7.1l-7.5,0c-2.8,0.1-3.8,2-3.8,2.6v0.1v0.4v8.9c0,0.6,0.6,1,1.2,1c0.7,0,1.2-0.5,1.2-1v-6.7H4v6.4
			C4,18.9,4,19,4,19v11c0,0.8,0.8,1.5,1.7,1.5s1.7-0.7,1.7-1.5v-9.4h0.9V30c0,0.8,0.8,1.5,1.7,1.5c1,0,1.7-0.7,1.7-1.5V18.8v-0.1
			v-6.3h0.9v6.7c0,0.6,0.6,1,1.3,1c0.7,0,1.3-0.5,1.3-1v-8.9V9.8V9.6C15.4,8.8,14.1,7.1,11.8,7.1z"/>
		<path fill="#009344" d="M7.9,6.5c1.6,0,3-1.5,3-3.3c0-1.8-1.3-3.3-3-3.3c-1.7,0-3,1.5-3,3.3C4.9,5.1,6.3,6.5,7.9,6.5z"/>
	</g>
	<g>
		<path fill="#E18C44" d="M29.8,6.8l-7.5,0c-2.8,0.1-3.8,2.3-3.8,3.1V10v0.5V21c0,0.7,0.6,1.2,1.2,1.2c0.7,0,1.2-0.6,1.2-1.2v-9.1
			H22v8.7c0,0.1,0,0.2,0,0.3v15.6c0,1,0.8,1.8,1.7,1.8c1,0,1.7-0.8,1.7-1.8V22.8h0.9v13.7c0,1,0.8,1.8,1.7,1.8c1,0,1.7-0.8,1.7-1.8
			V20.6v-0.1v-8.6h0.9V21c0,0.7,0.6,1.2,1.3,1.2c0.7,0,1.3-0.6,1.3-1.2V10.5V10V9.7C33.4,8.8,32.1,6.8,29.8,6.8z"/>
		<path fill="#E18C44" d="M25.9,6.2c1.7,0,3-1.3,3-3c0-1.6-1.3-3-3-3c-1.7,0-3,1.3-3,3C22.9,4.9,24.3,6.2,25.9,6.2z"/>
	</g>
</g>
</svg>
