<?xml version="1.0" encoding="utf-8"?>
<!-- Generator: Adobe Illustrator 18.1.0, SVG Export Plug-In . SVG Version: 6.00 Build 0)  -->
<svg version="1.1" id="Layer_1" xmlns="http://www.w3.org/2000/svg" xmlns:xlink="http://www.w3.org/1999/xlink" x="0px" y="0px"
	 viewBox="0 0 932.5 104.9" enable-background="new 0 0 932.5 104.9" xml:space="preserve">
<rect x="0" y="16.6" fill="#439D40" width="306.7" height="44.5"/>
<rect x="-0.8" y="61.1" fill="#0B773C" width="307.6" height="43.9"/>
<g>
	<path fill="#439D40" d="M932.5,12c-15.3,0-22.1,0.7-37.4,2c-35.3,3.3-70,18.7-104.7,26.7C724.4,56,671.4,21,604.7,21
		C566,21,538.9,7.2,499.6,7.2c-13.3,0-63,11.5-77.3,11.5v86.3h510.2V12z"/>
</g>
<g>
	<path fill="#0B773C" d="M932.5,68.9c-14.7-4-24.4-2.1-38.4-6.1c-42-11.3-84.7-18-127.3-24c-40.7-6-78.7-3.3-119.3-0.7
		c-45.3,3.3-91.3,8-136,14c-19.3,2.7-39.3,6.7-58.7,8c-10.7,0.7-18-1.2-30.5,1l-2.2,43.9h512.4V68.9z"/>
</g>
<polygon fill="#84BB3B" points="752.9,25.7 752.9,23 753.8,23 753.8,25.7 754.8,25.7 757,24.4 757,20.9 758.1,20.9 758.1,23.8 
	759.7,22.8 759.7,22.1 759.7,21.4 759.1,20.9 759.7,20.5 760.2,19.9 760.2,16.4 759.8,16.4 759.8,15.7 760.5,15.3 760.5,14.7 
	760.5,14.3 760.5,13.8 761.1,13.2 761.4,12.2 762,11.5 762.3,11.1 762.7,11.5 763.2,12.2 763.5,13.2 764.2,13.8 764.2,14.3 
	764.2,14.7 764.2,15.3 764.9,15.7 764.9,16.4 764.5,16.4 764.5,19.9 765,20.5 765.5,20.9 765,21.4 765,22.1 765,22.8 766.5,23.8 
	766.5,20.9 767.7,20.9 767.7,24.4 769.8,25.7 770.8,25.7 770.8,23 771.8,23 771.8,25.7 772.3,25.7 772.3,27.3 772.3,39.5 
	772.3,40.3 762.3,40.3 762.3,40.3 752.3,40.3 752.3,39.5 752.3,27.3 752.3,25.7 "/>
<g>
	<g>
		<polygon fill="#84BB3B" points="709.4,3.4 709.5,3.4 709.5,3.4 		"/>
		<polygon fill="#84BB3B" points="700.5,26.4 707.1,22.6 707.1,18.9 706.5,18.5 706.5,17.9 707.1,17.7 707.4,15.1 707.1,14.7 
			707.1,14.2 707.8,13.3 707.8,11.5 707.8,10.9 708.1,10.2 709.4,3.7 709.4,3.4 709.5,3.6 709.5,3.4 709.5,3.7 710.8,10.2 
			711.1,10.9 711.1,11.5 711.1,13.3 711.8,14.2 711.9,14.7 711.5,15.1 711.9,17.7 712.4,17.9 712.4,18.5 711.9,18.9 711.9,22.6 
			718.5,26.4 718.1,26.4 718.2,36.5 709.5,36.5 709.4,36.5 700.7,36.5 700.8,26.4 		"/>
	</g>
	<line fill="#84BB3B" x1="709.5" y1="0.9" x2="709.5" y2="3.5"/>
	<line fill="#84BB3B" x1="710.3" y1="2" x2="708.1" y2="2"/>
	<path fill="#84BB3B" d="M710.1,1.9c0,0.1,0.1,0.2,0.2,0.2c0.1,0,0.2-0.1,0.2-0.2c0-0.1-0.1-0.2-0.2-0.2
		C710.2,1.8,710.1,1.8,710.1,1.9z"/>
	<polygon fill="#84BB3B" points="709.5,3.6 709.6,3.5 709.5,3.4 709.4,3.4 709.3,3.5 709.4,3.6 	"/>
	<g>
		<path fill="#84BB3B" d="M709.5,1.2C709.5,1.2,709.5,1.2,709.5,1.2l0.1-0.2c0,0,0-0.1,0-0.1l0-0.1c0,0,0,0-0.1,0h-0.1
			c0,0-0.1,0-0.1,0l0,0.1c0,0,0,0.1,0,0.1l0,0.1C709.4,1.2,709.4,1.2,709.5,1.2L709.5,1.2z"/>
	</g>
</g>
<g>
	
		<rect x="775.3" y="30.5" transform="matrix(-1 3.938816e-003 -3.938816e-003 -1 1567.7344 70.4531)" fill="#84BB3B" width="17" height="12.5"/>
	<polyline fill="#84BB3B" points="783.8,30.5 787.1,28.5 790.7,30.5 	"/>
	<polyline fill="#84BB3B" points="776.8,30.6 780.2,28.5 783.8,30.5 	"/>
</g>
<g>
	<rect x="823" y="44.7" fill="#84BB3B" width="13.6" height="10.3"/>
	<polyline fill="#84BB3B" points="836.6,44.7 829.8,39.5 823,44.7 	"/>
</g>
<g>
	<rect x="728.9" y="26.3" fill="#84BB3B" width="19.9" height="11.6"/>
	<rect x="733.2" y="24.3" fill="#84BB3B" width="11.2" height="2.8"/>
	<rect x="736.5" y="22.9" fill="#84BB3B" width="4.7" height="2.8"/>
</g>
<g>
	<rect x="795.3" y="31.7" fill="#84BB3B" width="20.9" height="15.6"/>
	<rect x="812.5" y="28.6" fill="#84BB3B" width="2.1" height="4.4"/>
</g>
<g>
	<rect x="653.4" y="28.3" fill="#84BB3B" width="17.1" height="10.1"/>
	<polyline fill="#84BB3B" points="670.5,28.7 665.3,24.7 660,28.7 	"/>
	<polyline fill="#84BB3B" points="665.3,28.7 659.1,20.6 653,28.7 	"/>
	<rect x="656.5" y="20.6" fill="#84BB3B" width="1.2" height="3.4"/>
</g>
<path fill="#84BB3B" d="M864.6,22.7V8.8c0,0,0.3-2.9,2.9-3.4c0,0,3.1,0.4,3.1,3.6c0,3.2,0,4.2,0,4.2l2.3-3.6l10.8,0.7l4.2,5.2h-0.5
	l-0.3,4.8L864.6,22.7z"/>
<g id="_x39_qwija_1_">
	<g>
		<path fill-rule="evenodd" clip-rule="evenodd" fill="#84BB3B" d="M908.1,10.1c-0.1-0.2,0.1-0.3,0-0.5c0-0.1,0-0.3,0.2-0.2
			c0.1,0,0.1,0,0.1-0.1c0-0.1,0-0.2,0-0.3c0-0.1,0-0.2,0.2-0.1c0.1,0,0.2-0.1,0.2-0.2c0-0.2,0.1-0.2,0.1-0.3c0-0.1,0.1-0.1,0-0.1
			c-0.1-0.1,0-0.1,0.1-0.2c0.1-0.1,0.2-0.2,0.1-0.3c-0.1-0.1-0.1-0.2-0.1-0.3c0.3,0.1,0.3,0.1,0.5-0.2c0,0,0-0.1,0.1-0.1
			c0.1,0,0.2,0,0.2-0.1c-0.1-0.1-0.1-0.3-0.3-0.2c-0.1,0-0.2,0-0.2-0.1c0-0.1-0.1-0.2-0.2-0.2c-0.1-0.1-0.1-0.2-0.2-0.1
			c-0.1,0.1-0.3,0.1-0.4,0c-0.1,0-0.2,0-0.1-0.1c0-0.1,0-0.2,0.1-0.2c0.1,0,0.2-0.2,0.4-0.2c0-0.1-0.1-0.1-0.2-0.2
			c0-0.1-0.1-0.2,0-0.2c0.1-0.1,0.1-0.2,0-0.2c-0.1-0.1-0.1-0.2,0-0.3c0.2-0.1,0.1-0.2-0.1-0.2c-0.2,0-0.2-0.1-0.1-0.3
			c0.1-0.1-0.2-0.3-0.3-0.4c-0.2,0-0.3-0.2-0.3-0.3c0-0.2-0.1-0.3-0.3-0.2c-0.1,0-0.2,0-0.3,0.1c-0.1,0.1-0.2-0.1-0.2-0.2
			c0-0.2,0.1-0.4,0.3-0.5c0.1-0.1,0.1-0.3,0.1-0.5c0-0.1-0.1-0.3-0.3-0.2c-0.1,0-0.2,0-0.3,0c0-0.1,0.2-0.1,0.1-0.2
			c-0.1-0.1-0.1-0.2-0.2-0.2c0,0-0.1,0-0.1,0c0-0.3-0.2-0.1-0.3-0.1c-0.1,0-0.1,0.1-0.1,0.2c0,0.1,0.1,0.2,0,0.2
			c-0.1,0-0.2-0.1-0.2-0.2c0,0,0,0,0,0C906,2,905.9,2,905.7,1.8c0.1-0.1,0.1,0.1,0.2,0c0-0.2-0.2-0.3-0.3-0.5c0-0.1-0.1-0.1-0.2,0
			c-0.1,0.2-0.3,0.1-0.4,0c-0.2-0.1-0.2,0-0.2,0.1c0,0,0,0.1,0,0.1c0,0-0.1,0-0.1,0c-0.1-0.1-0.2-0.1-0.2,0c0,0.2-0.2,0.3-0.3,0.5
			c-0.1,0.1-0.2,0.1-0.2,0c0-0.1,0-0.2,0-0.2c0.1-0.2,0.1-0.4,0.2-0.6c0-0.1,0-0.2,0-0.3c0-0.1,0-0.2,0.1-0.3c0.1-0.1,0-0.2-0.1-0.2
			c-0.1,0-0.3,0-0.4,0.1c-0.2,0.1-0.2,0-0.3-0.1c-0.1-0.1-0.2-0.3-0.4-0.1c-0.1,0.1-0.2,0.1-0.2,0c-0.2-0.3-0.4-0.3-0.7-0.1
			c-0.1,0.1-0.1,0.1-0.2,0c-0.2-0.1-0.3-0.1-0.5,0c-0.2,0-0.3,0.3-0.2,0.5c0,0.1,0,0.2-0.1,0.2c-0.1,0-0.3,0-0.3,0.1
			c0,0-0.1,0-0.1,0c0,0,0-0.1,0-0.1c0-0.1,0.1,0,0.1-0.1c-0.1,0-0.2-0.1-0.3,0c0,0.1-0.1,0-0.1,0c0-0.1-0.1-0.1-0.2-0.1
			c-0.1,0-0.1,0.1-0.1,0.2c0,0,0,0.1,0,0.1c-0.2,0-0.2,0.2-0.4,0.2c-0.3,0-0.4,0.2-0.3,0.5c0,0.1,0,0.1-0.1,0.1c0,0.1,0,0.2,0.1,0.2
			c0.1,0,0.2,0.1,0.2,0.2c-0.1,0.1,0,0.4-0.3,0.4c-0.2,0-0.3,0.2-0.1,0.4c0.2,0.1,0.1,0.3,0.1,0.4c0,0,0,0.1,0,0.1
			c0.1,0,0.1,0,0.1,0c0.2-0.1,0.3-0.1,0.3,0.2c0,0.1,0,0.2,0.1,0.4c0.1,0,0,0.1-0.1,0.1c-0.1,0-0.2,0.1-0.2,0.2c0,0,0,0,0,0
			c0-0.1-0.1-0.2-0.2-0.1c-0.1,0-0.1,0.2-0.1,0.2c0,0.2-0.1,0.3-0.3,0.4c-0.2,0.1-0.3,0.2-0.4,0.4c-0.1,0.1-0.2,0-0.1,0.2
			c-0.1,0.1-0.2,0.1-0.3,0c-0.1-0.2-0.3-0.1-0.5-0.1c0,0-0.1,0-0.1,0.1c0,0,0,0.1,0.1,0.1c0.1,0,0.2,0,0.3,0.1c-0.3,0.2,0,0.4,0,0.6
			c0,0,0.1,0.1,0.1,0.1c0,0,0.1,0,0.1,0.1c0,0.1,0,0.1,0,0.2c-0.1,0-0.1,0.1-0.1-0.1c0,0,0-0.1,0-0.1c-0.3,0-0.6-0.2-0.9,0
			c-0.2,0.1-0.2,0.4-0.2,0.5c0.1,0.2,0.1,0.5,0.3,0.7c0.1,0.1,0.2,0.2,0.4,0.3c-0.2,0.1-0.4,0.1-0.6,0c0,0-0.1-0.1-0.2,0
			c-0.1,0.1-0.2,0.1-0.3,0c0-0.1-0.2,0-0.2,0.1c0,0.2,0,0.4-0.1,0.6c-0.1,0.1,0.1,0.4,0.3,0.4c-0.2,0.2-0.4,0.3-0.4,0.6
			c0,0.2,0,0.3,0.2,0.3c0.1,0,0.1,0.1,0.1,0.2c0.1,0,0.1-0.1,0.1-0.1c0.1,0.1,0.1,0.3,0,0.4c-0.1,0.2-0.1,0.3,0,0.4
			c0,0,0.1,0.1,0.1,0.1c0.3,0,0.6,0.1,0.8,0.2c0.1,0,0.2,0,0.3-0.1c0.1,0.1,0.1,0.1,0.1,0.2c-0.1,0.2,0,0.2,0.2,0.1c0,0,0,0.1,0,0.1
			c0,0.2,0.1,0.2,0.2,0.1c0,0,0.1-0.1,0.1,0c0.2,0.2,0.3,0,0.4-0.1c0,0,0.1-0.1,0.1-0.1c0.1,0,0.2,0,0.2-0.1c0,0,0-0.1,0.1-0.1
			c0.3,0.1,0.6-0.2,0.5-0.5c0.1,0.2,0.2,0.4,0.2,0.5c0.3-0.2,0.4,0,0.4,0.2c0,0,0,0.1,0.1,0.1c0.3-0.1,0.6-0.1,0.8-0.3
			c0.2-0.2,0.7,0.1,0.7,0.3c0,0,0,0.1,0,0.1c0.3,0.2,0.3,0.5,0.4,0.8c0.1,0.6,0.1,1.3,0,1.9c0,0.2,0,0.2,0.2,0.2c0.3,0,0.6,0,1,0
			c0.1,0,0.1,0,0.1-0.1c0.2-0.3,0.1-0.6-0.1-0.8c-0.1-0.2-0.2-0.5-0.1-0.8c0-0.1,0.1-0.3,0.1-0.4c0-0.1,0.1-0.2,0-0.3
			c-0.1-0.2,0.1-0.4,0.2-0.5c0.1-0.1,0.2-0.1,0.4,0c0.1,0.1,0.3,0.1,0.4,0.1c0.1,0,0.1,0,0.1-0.1c-0.1-0.1,0.1-0.1,0.1-0.1
			c0.1,0,0.1,0.1,0.1,0.2c0,0.2,0,0.3,0.1,0.4c0,0.1,0.1,0.1,0.2,0.1c0.2-0.1,0.3,0,0.5-0.1c0.2-0.1,0.3-0.1,0.5-0.1
			c0.1,0,0.2,0,0.3-0.1c0,0,0.1-0.1,0.1,0c0.1,0,0.3,0.1,0.4-0.1c0-0.1,0.1,0,0.1,0.1c0.1,0.1,0.1,0.2,0.3,0.1
			c0.1,0,0.2-0.2,0.1-0.3c0,0,0,0,0-0.1c0-0.1-0.1-0.2-0.1-0.3c0-0.2,0.2,0,0.3,0c0.1-0.1,0.1-0.1,0.1-0.2c-0.1-0.1,0-0.4-0.3-0.4
			c0,0,0,0,0-0.1c0,0,0-0.1,0.1,0C908,10.1,908.1,10.1,908.1,10.1z"/>
	</g>
</g>
<g>
	<rect x="630.1" y="34.5" fill="#84BB3B" width="9.3" height="8.5"/>
	<polyline fill="#84BB3B" points="640.2,35.5 634.8,27.2 629.4,35.5 	"/>
	<rect x="637.1" y="28.8" fill="#84BB3B" width="1.1" height="4.8"/>
</g>
<g>
	<path fill="#0B773C" d="M843.7,55.4c-8-0.1-16.1-2.9-24.1-2.8c-2.4,0-4.6,0.8-7,0.9v6.1h29.9L843.7,55.4z"/>
</g>
<g>
	<path fill="#0B773C" d="M604.6,44.7c0.2,1.1,0.4,2.3,0.5,3.5c2.4-0.1,4.9,1.4,5.1,4.4c0.2,0,0.3-0.1,0.5-0.1
		c59.1-1,118.4-4.5,177.5-0.9c9.2,0.6,18.4,1.1,27.5,2.3c0.4,0.1,0.9,0.1,1.3,0.2c-0.2-2.7,0.5-5.4,2.3-7.6
		c-13.8-2.2-27.5-4.2-41.3-6.2c-40.7-6-78.7-3.3-119.3-0.7c-18,1.3-36.1,2.9-54.2,4.6C604.5,44.5,604.6,44.6,604.6,44.7z"/>
</g>
<path fill="#439D40" d="M422.3,18.6c0,0-30.7-6.9-50.5-6.9c-6.8,0-13.2,2.1-25.7,4.8c-8.3,1.8-34.1,1.6-39.4,0
	c-11.9-3.7-2.7,53.4-2.7,53.4l119.5-1.7L422.3,18.6z"/>
<path fill="#0B773C" d="M481.2,56.7c0,0-86.6-4.1-106.7-2.6c-20.2,1.5-71.7,7-71.7,7v43.9h128L481.2,56.7z"/>
<g>
	<path fill-rule="evenodd" clip-rule="evenodd" fill="#439D40" d="M185.2,59.1c23.8,0,41.9,6,65.8,2.5c11.5-1.5,22.2-2,32.9-3.5
		c12.3-2,22.2-5.5,35.3-6"/>
</g>
</svg>
