<?xml version="1.0" encoding="utf-8"?>
<!-- Generator: Adobe Illustrator 18.1.0, SVG Export Plug-In . SVG Version: 6.00 Build 0)  -->
<svg version="1.1" id="Layer_1" xmlns="http://www.w3.org/2000/svg" xmlns:xlink="http://www.w3.org/1999/xlink" x="0px" y="0px"
	 viewBox="0 366.4 864 97.3" enable-background="new 0 366.4 864 97.3" xml:space="preserve">
<rect y="381.8" fill="#439D40" width="284.2" height="42.5"/>
<rect x="-0.7" y="423" fill="#0B773C" width="285" height="40.7"/>
<g>
	<path fill="#439D40" d="M864,377.5c-14.2,0-20.5,0.6-34.7,1.9c-32.7,3.1-64.9,17.3-97,24.7c-61.2,14.2-110.3-18.3-172.1-18.3
		c-35.9,0-61-12.8-97.4-12.8c-12.3,0-58.4,10.7-71.6,10.7v80H864V377.5z"/>
</g>
<g>
	<path fill="#0B773C" d="M864,430.2c-13.6-3.7-22.6-1.9-35.6-5.7c-38.9-10.5-78.5-16.7-117.9-22.2c-37.7-5.6-72.9-3.1-110.5-0.6
		c-42,3.1-84.6,7.4-126,13c-17.9,2.5-36.4,6.2-54.4,7.4c-9.9,0.6-16.7-1.1-28.3,0.9l-2,40.7H864V430.2z"/>
</g>
<polygon fill="#84BB3B" points="697.6,390.2 697.6,387.7 698.4,387.7 698.4,390.2 699.4,390.2 701.4,389 701.4,385.8 702.4,385.8 
	702.4,388.5 703.9,387.5 703.9,386.9 703.9,386.2 703.3,385.8 703.9,385.4 704.4,384.8 704.4,381.6 704,381.6 704,380.9 
	704.6,380.6 704.6,380 704.6,379.7 704.6,379.2 705.2,378.6 705.5,377.7 706,377.1 706.3,376.7 706.7,377.1 707.1,377.7 
	707.4,378.6 708.1,379.2 708.1,379.7 708.1,380 708.1,380.6 708.7,380.9 708.7,381.6 708.3,381.6 708.3,384.8 708.8,385.4 
	709.3,385.8 708.8,386.2 708.8,386.9 708.8,387.5 710.2,388.5 710.2,385.8 711.3,385.8 711.3,389 713.3,390.2 714.2,390.2 
	714.2,387.7 715.1,387.7 715.1,390.2 715.6,390.2 715.6,391.7 715.6,403 715.6,403.7 706.3,403.7 706.3,403.7 697,403.7 697,403 
	697,391.7 697,390.2 "/>
<g>
	<g>
		<polygon fill="#84BB3B" points="657.3,369.6 657.4,369.6 657.4,369.6 		"/>
		<polygon fill="#84BB3B" points="649,390.9 655.2,387.3 655.2,383.9 654.6,383.5 654.6,383 655.2,382.8 655.4,380.4 655.2,380 
			655.2,379.6 655.8,378.7 655.8,377.1 655.8,376.5 656.1,375.9 657.3,369.8 657.3,369.6 657.4,369.7 657.4,369.6 657.4,369.8 
			658.6,375.9 658.9,376.5 658.9,377.1 658.9,378.7 659.5,379.6 659.6,380 659.2,380.4 659.6,382.8 660.1,383 660.1,383.5 
			659.6,383.9 659.6,387.3 665.7,390.9 665.3,390.9 665.4,400.2 657.4,400.2 657.3,400.2 649.2,400.2 649.3,390.9 		"/>
	</g>
	<line fill="none" x1="657.4" y1="367.2" x2="657.4" y2="369.6"/>
	<line fill="none" x1="658.1" y1="368.3" x2="656.1" y2="368.3"/>
	<path fill="#84BB3B" d="M657.9,368.2c0,0.1,0.1,0.2,0.2,0.2s0.2-0.1,0.2-0.2s-0.1-0.2-0.2-0.2C658,368.1,657.9,368.1,657.9,368.2z"
		/>
	<polygon fill="#84BB3B" points="657.4,369.7 657.5,369.6 657.4,369.6 657.3,369.6 657.2,369.6 657.3,369.7 	"/>
	<g>
		<path fill="#84BB3B" d="M657.4,367.5L657.4,367.5l0.1-0.2v-0.1v-0.1c0,0,0,0-0.1,0h-0.1h-0.1v0.1v0.1v0.1
			C657.3,367.5,657.3,367.5,657.4,367.5L657.4,367.5z"/>
	</g>
</g>
<g>
	
		<rect x="718.3" y="394.7" transform="matrix(1 -3.938785e-003 3.938785e-003 1 -1.5718 2.8635)" fill="#84BB3B" width="15.8" height="11.6"/>
	<polyline fill="#84BB3B" points="726.2,394.7 729.3,392.8 732.6,394.7 	"/>
	<polyline fill="#84BB3B" points="719.7,394.8 722.9,392.8 726.2,394.7 	"/>
</g>
<g>
	<rect x="762.5" y="407.8" fill="#84BB3B" width="12.6" height="9.5"/>
	<polyline fill="#84BB3B" points="775.1,407.8 768.8,403 762.5,407.8 	"/>
</g>
<g>
	<rect x="675.4" y="390.8" fill="#84BB3B" width="18.4" height="10.7"/>
	<rect x="679.3" y="388.9" fill="#84BB3B" width="10.4" height="2.6"/>
	<rect x="682.4" y="387.6" fill="#84BB3B" width="4.4" height="2.6"/>
</g>
<g>
	<rect x="736.9" y="395.8" fill="#84BB3B" width="19.4" height="14.5"/>
	<rect x="752.8" y="392.9" fill="#84BB3B" width="1.9" height="4.1"/>
</g>
<g>
	<rect x="605.4" y="392.6" fill="#84BB3B" width="15.8" height="9.4"/>
	<polyline fill="#84BB3B" points="621.2,393 616.4,389.3 611.5,393 	"/>
	<polyline fill="#84BB3B" points="616.4,393 610.7,385.5 605,393 	"/>
	<rect x="608.3" y="385.5" fill="#84BB3B" width="1.1" height="3.2"/>
</g>
<path fill="#84BB3B" d="M801.1,387.4v-12.9c0,0,0.3-2.7,2.7-3.2c0,0,2.9,0.4,2.9,3.3s0,3.9,0,3.9l2.1-3.3l10,0.6l3.9,4.8h-0.5
	l-0.3,4.4L801.1,387.4z"/>
<g id="_x39_qwija_1_">
	<g>
		<path fill="#84BB3B" d="M841.4,375.8c-0.1-0.2,0.1-0.3,0-0.5c0-0.1,0-0.3,0.2-0.2c0.1,0,0.1,0,0.1-0.1c0-0.1,0-0.2,0-0.3
			s0-0.2,0.2-0.1c0.1,0,0.2-0.1,0.2-0.2c0-0.2,0.1-0.2,0.1-0.3s0.1-0.1,0-0.1c-0.1-0.1,0-0.1,0.1-0.2c0.1-0.1,0.2-0.2,0.1-0.3
			c-0.1-0.1-0.1-0.2-0.1-0.3c0.3,0.1,0.3,0.1,0.5-0.2c0,0,0-0.1,0.1-0.1c0.1,0,0.2,0,0.2-0.1c-0.1-0.1-0.1-0.3-0.3-0.2
			c-0.1,0-0.2,0-0.2-0.1s-0.1-0.2-0.2-0.2c-0.1-0.1-0.1-0.2-0.2-0.1c-0.1,0.1-0.3,0.1-0.4,0c-0.1,0-0.2,0-0.1-0.1
			c0-0.1,0-0.2,0.1-0.2c0.1,0,0.2-0.2,0.4-0.2c0-0.1-0.1-0.1-0.2-0.2c0-0.1-0.1-0.2,0-0.2c0.1-0.1,0.1-0.2,0-0.2
			c-0.1-0.1-0.1-0.2,0-0.3c0.2-0.1,0.1-0.2-0.1-0.2c-0.2,0-0.2-0.1-0.1-0.3c0.1-0.1-0.2-0.3-0.3-0.4c-0.2,0-0.3-0.2-0.3-0.3
			c0-0.2-0.1-0.3-0.3-0.2c-0.1,0-0.2,0-0.3,0.1c-0.1,0.1-0.2-0.1-0.2-0.2c0-0.2,0.1-0.4,0.3-0.5c0.1-0.1,0.1-0.3,0.1-0.5
			c0-0.1-0.1-0.3-0.3-0.2c-0.1,0-0.2,0-0.3,0c0-0.1,0.2-0.1,0.1-0.2s-0.1-0.2-0.2-0.2h-0.1c0-0.3-0.2-0.1-0.3-0.1
			c-0.1,0-0.1,0.1-0.1,0.2s0.1,0.2,0,0.2s-0.2-0.1-0.2-0.2l0,0c-0.1-0.1-0.2-0.1-0.4-0.3c0.1-0.1,0.1,0.1,0.2,0
			c0-0.2-0.2-0.3-0.3-0.5c0-0.1-0.1-0.1-0.2,0c-0.1,0.2-0.3,0.1-0.4,0c-0.2-0.1-0.2,0-0.2,0.1v0.1h-0.1c-0.1-0.1-0.2-0.1-0.2,0
			c0,0.2-0.2,0.3-0.3,0.5c-0.1,0.1-0.2,0.1-0.2,0s0-0.2,0-0.2c0.1-0.2,0.1-0.4,0.2-0.6c0-0.1,0-0.2,0-0.3s0-0.2,0.1-0.3
			c0.1-0.1,0-0.2-0.1-0.2c-0.1,0-0.3,0-0.4,0.1c-0.2,0.1-0.2,0-0.3-0.1s-0.2-0.3-0.4-0.1c-0.1,0.1-0.2,0.1-0.2,0
			c-0.2-0.3-0.4-0.3-0.6-0.1c-0.1,0.1-0.1,0.1-0.2,0c-0.2-0.1-0.3-0.1-0.5,0c-0.2,0-0.3,0.3-0.2,0.5c0,0.1,0,0.2-0.1,0.2
			s-0.3,0-0.3,0.1h-0.1v-0.1c0-0.1,0.1,0,0.1-0.1c-0.1,0-0.2-0.1-0.3,0c0,0.1-0.1,0-0.1,0c0-0.1-0.1-0.1-0.2-0.1
			c-0.1,0-0.1,0.1-0.1,0.2v0.1c-0.2,0-0.2,0.2-0.4,0.2c-0.3,0-0.4,0.2-0.3,0.5c0,0.1,0,0.1-0.1,0.1c0,0.1,0,0.2,0.1,0.2
			s0.2,0.1,0.2,0.2c-0.1,0.1,0,0.4-0.3,0.4c-0.2,0-0.3,0.2-0.1,0.4c0.2,0.1,0.1,0.3,0.1,0.4v0.1c0.1,0,0.1,0,0.1,0
			c0.2-0.1,0.3-0.1,0.3,0.2c0,0.1,0,0.2,0.1,0.4c0.1,0,0,0.1-0.1,0.1s-0.2,0.1-0.2,0.2l0,0c0-0.1-0.1-0.2-0.2-0.1
			c-0.1,0-0.1,0.2-0.1,0.2c0,0.2-0.1,0.3-0.3,0.4c-0.2,0.1-0.3,0.2-0.4,0.4c-0.1,0.1-0.2,0-0.1,0.2c-0.1,0.1-0.2,0.1-0.3,0
			c-0.1-0.2-0.3-0.1-0.5-0.1c0,0-0.1,0-0.1,0.1c0,0,0,0.1,0.1,0.1c0.1,0,0.2,0,0.3,0.1c-0.3,0.2,0,0.4,0,0.6l0.1,0.1
			c0,0,0.1,0,0.1,0.1s0,0.1,0,0.2c-0.1,0-0.1,0.1-0.1-0.1v-0.1c-0.3,0-0.6-0.2-0.8,0c-0.2,0.1-0.2,0.4-0.2,0.5
			c0.1,0.2,0.1,0.5,0.3,0.6c0.1,0.1,0.2,0.2,0.4,0.3c-0.2,0.1-0.4,0.1-0.6,0c0,0-0.1-0.1-0.2,0c-0.1,0.1-0.2,0.1-0.3,0
			c0-0.1-0.2,0-0.2,0.1c0,0.2,0,0.4-0.1,0.6c-0.1,0.1,0.1,0.4,0.3,0.4c-0.2,0.2-0.4,0.3-0.4,0.6c0,0.2,0,0.3,0.2,0.3
			c0.1,0,0.1,0.1,0.1,0.2c0.1,0,0.1-0.1,0.1-0.1c0.1,0.1,0.1,0.3,0,0.4c-0.1,0.2-0.1,0.3,0,0.4l0.1,0.1c0.3,0,0.6,0.1,0.7,0.2
			c0.1,0,0.2,0,0.3-0.1c0.1,0.1,0.1,0.1,0.1,0.2c-0.1,0.2,0,0.2,0.2,0.1v0.1c0,0.2,0.1,0.2,0.2,0.1c0,0,0.1-0.1,0.1,0
			c0.2,0.2,0.3,0,0.4-0.1l0.1-0.1c0.1,0,0.2,0,0.2-0.1c0,0,0-0.1,0.1-0.1c0.3,0.1,0.6-0.2,0.5-0.5c0.1,0.2,0.2,0.4,0.2,0.5
			c0.3-0.2,0.4,0,0.4,0.2c0,0,0,0.1,0.1,0.1c0.3-0.1,0.6-0.1,0.7-0.3c0.2-0.2,0.6,0.1,0.6,0.3v0.1c0.3,0.2,0.3,0.5,0.4,0.7
			c0.1,0.6,0.1,1.2,0,1.8c0,0.2,0,0.2,0.2,0.2c0.3,0,0.6,0,0.9,0c0.1,0,0.1,0,0.1-0.1c0.2-0.3,0.1-0.6-0.1-0.7
			c-0.1-0.2-0.2-0.5-0.1-0.7c0-0.1,0.1-0.3,0.1-0.4s0.1-0.2,0-0.3c-0.1-0.2,0.1-0.4,0.2-0.5c0.1-0.1,0.2-0.1,0.4,0
			c0.1,0.1,0.3,0.1,0.4,0.1s0.1,0,0.1-0.1c-0.1-0.1,0.1-0.1,0.1-0.1c0.1,0,0.1,0.1,0.1,0.2c0,0.2,0,0.3,0.1,0.4
			c0,0.1,0.1,0.1,0.2,0.1c0.2-0.1,0.3,0,0.5-0.1c0.2-0.1,0.3-0.1,0.5-0.1c0.1,0,0.2,0,0.3-0.1c0,0,0.1-0.1,0.1,0
			c0.1,0,0.3,0.1,0.4-0.1c0-0.1,0.1,0,0.1,0.1c0.1,0.1,0.1,0.2,0.3,0.1c0.1,0,0.2-0.2,0.1-0.3c0,0,0,0,0-0.1c0-0.1-0.1-0.2-0.1-0.3
			c0-0.2,0.2,0,0.3,0c0.1-0.1,0.1-0.1,0.1-0.2c-0.1-0.1,0-0.4-0.3-0.4c0,0,0,0,0-0.1c0,0,0-0.1,0.1,0
			C841.3,375.8,841.4,375.8,841.4,375.8z"/>
	</g>
</g>
<g>
	<rect x="583.8" y="398.4" fill="#84BB3B" width="8.6" height="7.9"/>
	<polyline fill="#84BB3B" points="593.2,399.3 588.2,391.6 583.2,399.3 	"/>
	<rect x="590.3" y="393.1" fill="#84BB3B" width="1" height="4.4"/>
</g>
<g>
	<path fill="#0B773C" d="M781.7,417.7c-7.4-0.1-14.9-2.7-22.3-2.6c-2.2,0-4.3,0.7-6.5,0.8v5.7h27.7L781.7,417.7z"/>
</g>
<g>
	<path fill="#0B773C" d="M560.2,407.8c0.2,1,0.4,2.1,0.5,3.2c2.2-0.1,4.5,1.3,4.7,4.1c0.2,0,0.3-0.1,0.5-0.1
		c54.8-0.9,109.7-4.2,164.5-0.8c8.5,0.6,17,1,25.5,2.1c0.4,0.1,0.8,0.1,1.2,0.2c-0.2-2.5,0.5-5,2.1-7c-12.8-2-25.5-3.9-38.3-5.7
		c-37.7-5.6-72.9-3.1-110.5-0.6c-16.7,1.2-33.4,2.7-50.2,4.3C560.1,407.6,560.2,407.7,560.2,407.8z"/>
</g>
<path fill="#439D40" d="M393.5,383.6c0,0-29-6.4-47.7-6.4c-6.4,0-12.5,1.9-24.3,4.4c-7.8,1.7-32.2,1.5-37.2,0
	c-11.2-3.4-2.6,49.5-2.6,49.5l112.9-1.6L393.5,383.6z"/>
<path fill="#0B773C" d="M445.9,418.9c0,0-80.2-3.8-98.9-2.4c-18.7,1.4-66.4,6.5-66.4,6.5v40.7h118.6L445.9,418.9z"/>
<g>
	<path fill="#439D40" d="M171.6,421.2c22.1,0,38.8,5.6,61,2.3c10.7-1.4,20.6-1.9,30.5-3.2c11.4-1.9,20.6-5.1,32.7-5.6"/>
</g>
</svg>
