<?xml version="1.0" encoding="utf-8"?>
<!-- Generator: Adobe Illustrator 18.1.0, SVG Export Plug-In . SVG Version: 6.00 Build 0)  -->
<svg version="1.1" id="Layer_1" xmlns="http://www.w3.org/2000/svg" xmlns:xlink="http://www.w3.org/1999/xlink" x="0px" y="0px"
	 viewBox="0 0 28 28" enable-background="new 0 0 28 28" xml:space="preserve">
<path id="instagram-circle-icon_2_" fill="#F7941E" d="M20.7,7.9v1.7c0,0.3-0.2,0.5-0.5,0.5h-1.7c-0.3,0-0.5-0.2-0.5-0.5V7.9
	c0-0.3,0.2-0.5,0.5-0.5h1.7C20.4,7.4,20.7,7.6,20.7,7.9z M14.2,16.4c1.3,0,2.3-1,2.3-2.3c0-1.3-1-2.3-2.3-2.3c-1.3,0-2.3,1-2.3,2.3
	C11.9,15.3,12.9,16.4,14.2,16.4z M28,14c0,7.7-6.3,14-14,14C6.3,28,0,21.7,0,14C0,6.3,6.3,0,14,0C21.7,0,28,6.3,28,14z M22.1,11.7
	h-4.6c0.5,0.7,0.7,1.5,0.7,2.3c0,2.2-1.8,4-4,4s-4-1.8-4-4c0-0.9,0.3-1.7,0.7-2.3H6.3v7.1c0,1.7,1.4,3.1,3.1,3.1H19
	c1.7,0,3.1-1.4,3.1-3.1V11.7z M14.2,17.2c1.7,0,3.1-1.4,3.1-3.1c0-0.9-0.4-1.8-1.1-2.3c-0.2-0.2-0.5-0.4-0.8-0.5
	c-0.4-0.2-0.8-0.3-1.3-0.3c-0.5,0-0.9,0.1-1.3,0.3c-0.3,0.1-0.5,0.3-0.8,0.5c-0.6,0.6-1.1,1.4-1.1,2.3
	C11.1,15.8,12.5,17.2,14.2,17.2z M22.1,9.2c0-1.7-1.4-3.1-3.1-3.1h-8.5V10H9.8V6.1H9.4c0,0,0,0-0.1,0V10H8.7V6.2
	c-0.2,0-0.3,0.1-0.4,0.1V10H7.6V6.7C6.9,7.2,6.3,8.2,6.3,9.2v2h5c0.7-0.7,1.7-1.2,2.9-1.2c1.1,0,2.1,0.5,2.9,1.2h5V9.2L22.1,9.2z"/>
</svg>
