<?xml version="1.0" encoding="utf-8"?>
<!-- Generator: Adobe Illustrator 17.0.0, SVG Export Plug-In . SVG Version: 6.00 Build 0)  -->
<!DOCTYPE svg PUBLIC "-//W3C//DTD SVG 1.1//EN" "http://www.w3.org/Graphics/SVG/1.1/DTD/svg11.dtd">
<svg version="1.1" id="Layer_1" xmlns="http://www.w3.org/2000/svg" xmlns:xlink="http://www.w3.org/1999/xlink" x="0px" y="0px"
	 width="116.654px" height="116.657px" viewBox="0 0 116.654 116.657" enable-background="new 0 0 116.654 116.657"
	 xml:space="preserve">
<g>
	<rect x="0" y="0" fill="#8FB91E" width="116.654" height="69.653"/>
	<g>
		<path fill="none" d="M80.803,35.865c12.871,0,24.615,0.932,35.851,2.267V0H0v45.092C22.584,43.123,67.438,35.865,80.803,35.865z"
			/>
		<g>
			<path fill="#45992F" d="M0,45.092v35.67c9.598-0.475,16.906,0.363,26.543-0.077c22.412-1.132,45.596-4.522,68.008-6.781
				c7.336-0.719,14.711-1.411,22.104-2.084V38.132c-11.236-1.335-22.98-2.267-35.851-2.267C67.438,35.865,22.584,43.123,0,45.092z"
				/>
		</g>
		<g>
			<path fill="#097333" d="M26.543,80.685C16.906,81.125,9.598,80.287,0,80.762v35.895h116.654V71.819
				c-7.393,0.673-14.768,1.365-22.104,2.084C72.139,76.163,48.955,79.553,26.543,80.685z"/>
		</g>
	</g>

		<text transform="matrix(1 0 0 1 43.563 110.4902)" fill="#FFFFFF" stroke="#FFFFFF" stroke-width="0.2302" stroke-miterlimit="10" font-family="'ITCAvantGardePro-Bold'" font-size="35.9253">C</text>

		<text transform="matrix(1 0 0 1 43.563 71.4434)" fill="#FFFFFF" stroke="#FFFFFF" stroke-width="0.2302" stroke-miterlimit="10" font-family="'ITCAvantGardePro-Bold'" font-size="35.9253">C</text>

		<text transform="matrix(1 0 0 1 49.7583 30.8516)" fill="#FFFFFF" stroke="#FFFFFF" stroke-width="0.2302" stroke-miterlimit="10" font-family="'ITCAvantGardePro-Bold'" font-size="35.9253">L</text>
</g>
</svg>
