<?xml version="1.0" encoding="utf-8"?>
<!-- Generator: Adobe Illustrator 18.1.0, SVG Export Plug-In . SVG Version: 6.00 Build 0)  -->
<svg version="1.1" id="Layer_1" xmlns="http://www.w3.org/2000/svg" xmlns:xlink="http://www.w3.org/1999/xlink" x="0px" y="0px"
	 viewBox="0 0 92.7 63.2" enable-background="new 0 0 92.7 63.2" xml:space="preserve">
<g>
	<path fill="#84BB3B" d="M-154.6-155.7c0,30.4-24.6,55-55,55c-30.4,0-55-24.6-55-55c0-22.6,13.6-42,33.1-50.5
		c6.7-2.9,14.1-4.5,21.9-4.5C-179.2-210.7-154.6-186.1-154.6-155.7z"/>
	<path fill="#D7DF23" d="M-252.4-189.3l42.8,33.6v-54.1l0,0C-226.9-209.8-242.4-201.8-252.4-189.3z"/>
	<text transform="matrix(1 0 0 1 -240.791 -120.6128)" font-family="'ITCAvantGardePro-Bk'" font-size="34.2456">88%</text>
</g>
<g>
	<path fill="#F7941E" d="M35.2,4.9l-5.6,0c-2.1,0.1-2.9,1.7-2.9,2.3v0.1v0.4v7.8c0,0.5,0.4,0.9,0.9,0.9c0.5,0,0.9-0.4,0.9-0.9V8.7
		h0.8v6.5c0,0.1,0,0.2,0,0.3v11.6c0,0.7,0.6,1.4,1.3,1.4c0.7,0,1.3-0.6,1.3-1.4V16.8h0.6v10.3c0,0.7,0.6,1.4,1.3,1.4
		c0.7,0,1.3-0.6,1.3-1.4V15.2v-0.1V8.7h0.7v6.8c0,0.5,0.4,0.9,1,0.9c0.5,0,1-0.4,1-0.9V7.6V7.3V7.1C37.9,6.4,37,4.9,35.2,4.9z"/>
	<path fill="#F7941E" d="M32.3,4.5c1.2,0,2.2-1,2.2-2.2c0-1.2-1-2.2-2.2-2.2c-1.2,0-2.2,1-2.2,2.2C30.1,3.5,31.1,4.5,32.3,4.5z"/>
</g>
<g>
	<path fill="#F7941E" d="M48.5,4.9l-5.6,0c-2.1,0.1-2.8,1.7-2.8,2.3v0.1v0.4v7.8c0,0.5,0.4,0.9,0.9,0.9s0.9-0.4,0.9-0.9V8.7h0.8v6.5
		c0,0.1,0,0.2,0,0.3v11.6c0,0.7,0.6,1.4,1.3,1.4c0.7,0,1.3-0.6,1.3-1.4V16.8h0.6v10.3c0,0.7,0.6,1.4,1.3,1.4c0.7,0,1.3-0.6,1.3-1.4
		V15.2v-0.1V8.7h0.7v6.8c0,0.5,0.4,0.9,1,0.9c0.5,0,1-0.4,1-0.9V7.6V7.3V7.1C51.2,6.4,50.3,4.9,48.5,4.9z"/>
	<path fill="#F7941E" d="M45.6,4.5c1.2,0,2.2-1,2.2-2.2c0-1.2-1-2.2-2.2-2.2c-1.2,0-2.2,1-2.2,2.2C43.4,3.5,44.4,4.5,45.6,4.5z"/>
</g>
<g>
	<path fill="#F7941E" d="M61.8,4.9l-5.6,0c-2.1,0.1-2.8,1.7-2.8,2.3v0.1v0.4v7.8c0,0.5,0.4,0.9,0.9,0.9c0.5,0,0.9-0.4,0.9-0.9V8.7
		H56v6.5c0,0.1,0,0.2,0,0.3v11.6c0,0.7,0.6,1.4,1.3,1.4c0.7,0,1.3-0.6,1.3-1.4V16.8h0.6v10.3c0,0.7,0.6,1.4,1.3,1.4
		c0.7,0,1.3-0.6,1.3-1.4V15.2v-0.1V8.7h0.7v6.8c0,0.5,0.4,0.9,1,0.9c0.5,0,1-0.4,1-0.9V7.6V7.3V7.1C64.5,6.4,63.6,4.9,61.8,4.9z"/>
	<path fill="#F7941E" d="M58.9,4.5c1.2,0,2.2-1,2.2-2.2c0-1.2-1-2.2-2.2-2.2c-1.2,0-2.2,1-2.2,2.2C56.7,3.5,57.7,4.5,58.9,4.5z"/>
</g>
<g>
	<path fill="#F7941E" d="M8.5,4.9l-5.6,0C0.8,4.9,0,6.6,0,7.2v0.1v0.4v7.8c0,0.5,0.4,0.9,0.9,0.9c0.5,0,0.9-0.4,0.9-0.9V8.7h0.8v6.5
		c0,0.1,0,0.2,0,0.3v11.6c0,0.7,0.6,1.4,1.3,1.4c0.7,0,1.3-0.6,1.3-1.4V16.8h0.6v10.3c0,0.7,0.6,1.4,1.3,1.4c0.7,0,1.3-0.6,1.3-1.4
		V15.2v-0.1V8.7h0.7v6.8c0,0.5,0.4,0.9,1,0.9c0.6,0,1-0.4,1-0.9V7.6V7.3V7.1C11.2,6.4,10.2,4.9,8.5,4.9z"/>
	<path fill="#F7941E" d="M5.6,4.5c1.2,0,2.2-1,2.2-2.2C7.8,1,6.8,0,5.6,0C4.3,0,3.3,1,3.3,2.2C3.3,3.5,4.3,4.5,5.6,4.5z"/>
</g>
<g>
	<path fill="#F7941E" d="M21.7,4.9l-5.6,0c-2.1,0.1-2.8,1.7-2.8,2.3v0.1v0.4v7.8c0,0.5,0.4,0.9,0.9,0.9c0.5,0,0.9-0.4,0.9-0.9V8.7
		h0.8v6.5c0,0.1,0,0.2,0,0.3v11.6c0,0.7,0.6,1.4,1.3,1.4s1.3-0.6,1.3-1.4V16.8h0.6v10.3c0,0.7,0.6,1.4,1.3,1.4
		c0.7,0,1.3-0.6,1.3-1.4V15.2v-0.1V8.7h0.7v6.8c0,0.5,0.4,0.9,1,0.9c0.5,0,1-0.4,1-0.9V7.6V7.3V7.1C24.4,6.4,23.5,4.9,21.7,4.9z"/>
	<path fill="#F7941E" d="M18.9,4.5c1.2,0,2.2-1,2.2-2.2c0-1.2-1-2.2-2.2-2.2c-1.2,0-2.2,1-2.2,2.2C16.6,3.5,17.6,4.5,18.9,4.5z"/>
</g>
<g>
	<path fill="#F7941E" d="M76.7,39.6l-5.6,0c-2.1,0.1-2.8,1.7-2.8,2.3V42v0.4v7.8c0,0.5,0.4,0.9,0.9,0.9c0.5,0,0.9-0.4,0.9-0.9v-6.8
		h0.8v6.5c0,0.1,0,0.2,0,0.3v11.6c0,0.7,0.6,1.4,1.3,1.4c0.7,0,1.3-0.6,1.3-1.4V51.6h0.6v10.3c0,0.7,0.6,1.4,1.3,1.4
		c0.7,0,1.3-0.6,1.3-1.4V49.9v-0.1v-6.4h0.7v6.8c0,0.5,0.4,0.9,1,0.9c0.5,0,1-0.4,1-0.9v-7.8V42v-0.2C79.4,41.1,78.5,39.6,76.7,39.6
		z"/>
	<path fill="#F7941E" d="M73.8,39.2c1.2,0,2.2-1,2.2-2.2c0-1.2-1-2.2-2.2-2.2c-1.2,0-2.2,1-2.2,2.2C71.6,38.2,72.6,39.2,73.8,39.2z"
		/>
</g>
<g>
	<path fill="#F7941E" d="M90,39.6l-5.6,0c-2.1,0.1-2.8,1.7-2.8,2.3V42v0.4v7.8c0,0.5,0.4,0.9,0.9,0.9c0.5,0,0.9-0.4,0.9-0.9v-6.8
		h0.8v6.5c0,0.1,0,0.2,0,0.3v11.6c0,0.7,0.6,1.4,1.3,1.4c0.7,0,1.3-0.6,1.3-1.4V51.6h0.6v10.3c0,0.7,0.6,1.4,1.3,1.4
		c0.7,0,1.3-0.6,1.3-1.4V49.9v-0.1v-6.4h0.7v6.8c0,0.5,0.4,0.9,1,0.9c0.5,0,1-0.4,1-0.9v-7.8V42v-0.2C92.7,41.1,91.8,39.6,90,39.6z"
		/>
	<path fill="#F7941E" d="M87.1,39.2c1.2,0,2.2-1,2.2-2.2c0-1.2-1-2.2-2.2-2.2c-1.2,0-2.2,1-2.2,2.2C84.9,38.2,85.9,39.2,87.1,39.2z"
		/>
</g>
<g>
	<path fill="#F7941E" d="M74.7,4.9l-5.6,0c-2.1,0.1-2.9,1.7-2.9,2.3v0.1v0.4v7.8c0,0.5,0.4,0.9,0.9,0.9c0.5,0,0.9-0.4,0.9-0.9V8.7
		h0.8v6.5c0,0.1,0,0.2,0,0.3v11.6c0,0.7,0.6,1.4,1.3,1.4c0.7,0,1.3-0.6,1.3-1.4V16.8h0.6v10.3c0,0.7,0.6,1.4,1.3,1.4
		c0.7,0,1.3-0.6,1.3-1.4V15.2v-0.1V8.7h0.7v6.8c0,0.5,0.4,0.9,1,0.9c0.5,0,1-0.4,1-0.9V7.6V7.3V7.1C77.4,6.4,76.4,4.9,74.7,4.9z"/>
	<path fill="#F7941E" d="M71.8,4.5c1.2,0,2.2-1,2.2-2.2C74,1,73,0,71.8,0c-1.2,0-2.2,1-2.2,2.2C69.5,3.5,70.5,4.5,71.8,4.5z"/>
</g>
<g>
	<path fill="#F7941E" d="M63.2,39.6l-5.6,0c-2.1,0.1-2.8,1.7-2.8,2.3V42v0.4v7.8c0,0.5,0.4,0.9,0.9,0.9c0.5,0,0.9-0.4,0.9-0.9v-6.8
		h0.8v6.5c0,0.1,0,0.2,0,0.3v11.6c0,0.7,0.6,1.4,1.3,1.4c0.7,0,1.3-0.6,1.3-1.4V51.6h0.6v10.3c0,0.7,0.6,1.4,1.3,1.4
		c0.7,0,1.3-0.6,1.3-1.4V49.9v-0.1v-6.4h0.7v6.8c0,0.5,0.4,0.9,1,0.9c0.6,0,1-0.4,1-0.9v-7.8V42v-0.2C65.9,41.1,65,39.6,63.2,39.6z"
		/>
	<path fill="#F7941E" d="M60.4,39.2c1.2,0,2.2-1,2.2-2.2c0-1.2-1-2.2-2.2-2.2c-1.2,0-2.2,1-2.2,2.2C58.1,38.2,59.1,39.2,60.4,39.2z"
		/>
</g>
<g>
	<path fill="#F7941E" d="M35.2,39.6l-5.6,0c-2.1,0.1-2.9,1.7-2.9,2.3V42v0.4v7.8c0,0.5,0.4,0.9,0.9,0.9c0.5,0,0.9-0.4,0.9-0.9v-6.8
		h0.8v6.5c0,0.1,0,0.2,0,0.3v11.6c0,0.8,0.6,1.4,1.3,1.4c0.7,0,1.3-0.6,1.3-1.4V51.6h0.6v10.3c0,0.8,0.6,1.4,1.3,1.4
		c0.7,0,1.3-0.6,1.3-1.4V49.9v-0.1v-6.4h0.7v6.8c0,0.5,0.4,0.9,1,0.9c0.5,0,1-0.4,1-0.9v-7.8V42v-0.2C37.9,41.1,37,39.6,35.2,39.6z"
		/>
	<path fill="#F7941E" d="M32.3,39.2c1.2,0,2.2-1,2.2-2.2c0-1.2-1-2.2-2.2-2.2c-1.2,0-2.2,1-2.2,2.2C30.1,38.2,31.1,39.2,32.3,39.2z"
		/>
</g>
<g>
	<path fill="#F7941E" d="M48.5,39.6l-5.6,0c-2.1,0.1-2.8,1.7-2.8,2.3V42v0.4v7.8c0,0.5,0.4,0.9,0.9,0.9s0.9-0.4,0.9-0.9v-6.8h0.8
		v6.5c0,0.1,0,0.2,0,0.3v11.6c0,0.8,0.6,1.4,1.3,1.4c0.7,0,1.3-0.6,1.3-1.4V51.6h0.6v10.3c0,0.8,0.6,1.4,1.3,1.4
		c0.7,0,1.3-0.6,1.3-1.4V49.9v-0.1v-6.4h0.7v6.8c0,0.5,0.4,0.9,1,0.9c0.5,0,1-0.4,1-0.9v-7.8V42v-0.2C51.2,41.1,50.3,39.6,48.5,39.6
		z"/>
	<circle fill="#F7941E" cx="45.6" cy="37" r="2.2"/>
</g>
<g>
	<path fill="#F7941E" d="M8.5,39.6l-5.6,0C0.8,39.7,0,41.3,0,41.9V42v0.4v7.8c0,0.5,0.4,0.9,0.9,0.9c0.5,0,0.9-0.4,0.9-0.9v-6.8h0.8
		v6.5c0,0.1,0,0.2,0,0.3v11.6c0,0.8,0.6,1.4,1.3,1.4c0.7,0,1.3-0.6,1.3-1.4V51.6h0.6v10.3c0,0.8,0.6,1.4,1.3,1.4
		c0.7,0,1.3-0.6,1.3-1.4V49.9v-0.1v-6.4h0.7v6.8c0,0.5,0.4,0.9,1,0.9c0.6,0,1-0.4,1-0.9v-7.8V42v-0.2C11.2,41.1,10.2,39.6,8.5,39.6z
		"/>
	<circle fill="#F7941E" cx="5.6" cy="37" r="2.2"/>
</g>
<g>
	<path fill="#F7941E" d="M21.7,39.6l-5.6,0c-2.1,0.1-2.8,1.7-2.8,2.3V42v0.4v7.8c0,0.5,0.4,0.9,0.9,0.9c0.5,0,0.9-0.4,0.9-0.9v-6.8
		h0.8v6.5c0,0.1,0,0.2,0,0.3v11.6c0,0.8,0.6,1.4,1.3,1.4s1.3-0.6,1.3-1.4V51.6h0.6v10.3c0,0.8,0.6,1.4,1.3,1.4
		c0.7,0,1.3-0.6,1.3-1.4V49.9v-0.1v-6.4h0.7v6.8c0,0.5,0.4,0.9,1,0.9c0.5,0,1-0.4,1-0.9v-7.8V42v-0.2C24.4,41.1,23.5,39.6,21.7,39.6
		z"/>
	<circle fill="#F7941E" cx="18.9" cy="37" r="2.2"/>
</g>
</svg>
