<?xml version="1.0" encoding="utf-8"?>
<!-- Generator: Adobe Illustrator 18.1.1, SVG Export Plug-In . SVG Version: 6.00 Build 0)  -->
<svg version="1.1" id="Слой_1" xmlns="http://www.w3.org/2000/svg" xmlns:xlink="http://www.w3.org/1999/xlink" x="0px" y="0px"
	 viewBox="0 251.1 593.1 343.4" enable-background="new 0 251.1 593.1 343.4" xml:space="preserve">
<rect y="251.1" fill="#0B773C" width="593.1" height="343.4"/>
<rect y="251.1" fill="#84BB3B" width="593.1" height="156.1"/>
<g opacity="0.78">
	<path fill="#659851" d="M564.1,289.5c2.9,28.9-19.3,55.2-32,57.9c-14,3.1-42.1-8.6-54.4-37.7c-10.5-25,5.3-56.6,31.8-61.7
		C536.6,243.1,561.3,262.6,564.1,289.5z"/>
	<path fill="none" stroke="#659851" stroke-width="2.3967" stroke-miterlimit="10" d="M531.1,337.1c7.8,41.6,28.9,103,62,192.8"/>
	<path fill="#659851" d="M529.5,339.7l9.6,9c0,0-0.6,2.1-4.7,3.7c-4.9,2-7.2,0.2-7.2,0.2L529.5,339.7z"/>
</g>
</svg>
