<?xml version="1.0" encoding="utf-8"?>
<!-- Generator: Adobe Illustrator 18.1.1, SVG Export Plug-In . SVG Version: 6.00 Build 0)  -->
<svg version="1.1" id="Слой_1" xmlns="http://www.w3.org/2000/svg" xmlns:xlink="http://www.w3.org/1999/xlink" x="0px" y="0px"
	 viewBox="0 0 305.1 177.9" enable-background="new 0 0 305.1 177.9" xml:space="preserve">
<rect x="0" y="1.9" fill="#4B724C" width="304" height="176"/>
<rect x="0" y="1.9" fill="#8DB654" width="304" height="80"/>
<g opacity="0.78">
	<path fill="#659851" d="M289.1,21.6c1.5,14.8-9.9,28.3-16.4,29.7c-7.2,1.6-21.6-4.4-27.9-19.3c-5.4-12.8,2.7-29,16.3-31.6
		C275-2.2,287.7,7.8,289.1,21.6z"/>
	<path fill="none" stroke="#659851" stroke-width="2.3967" stroke-miterlimit="10" d="M272.2,46c4,21.3,14.8,52.8,31.8,98.8"/>
	<path fill="#659851" d="M271.4,47.3l4.9,4.6c0,0-0.3,1.1-2.4,1.9c-2.5,1-3.7,0.1-3.7,0.1L271.4,47.3z"/>
</g>
</svg>
