<?xml version="1.0" encoding="utf-8"?>
<!-- Generator: Adobe Illustrator 18.1.1, SVG Export Plug-In . SVG Version: 6.00 Build 0)  -->
<svg version="1.1" id="Слой_1" xmlns="http://www.w3.org/2000/svg" xmlns:xlink="http://www.w3.org/1999/xlink" x="0px" y="0px"
	 viewBox="0 0 305.1 177.9" enable-background="new 0 0 305.1 177.9" xml:space="preserve">
<rect x="0" y="1.9" fill="#4B724C" width="304" height="176"/>
<rect x="0" y="1.9" fill="#8DB654" width="304" height="80"/>
<g opacity="0.78">
	<path fill="#659851" d="M289.1,21.6c1.5,14.8-9.9,28.3-16.4,29.7c-7.2,1.6-21.6-4.4-27.9-19.3c-5.4-12.8,2.7-29,16.3-31.6
		C275-2.2,287.7,7.8,289.1,21.6z"/>
	<path fill="none" stroke="#659851" stroke-width="2.3967" stroke-miterlimit="10" d="M272.2,46c4,21.3,14.8,52.8,31.8,98.8"/>
	<path fill="#659851" d="M271.4,47.3l4.9,4.6c0,0-0.3,1.1-2.4,1.9c-2.5,1-3.7,0.1-3.7,0.1L271.4,47.3z"/>
</g>
<g opacity="0.5">
	<path fill="#659851" d="M280.6,47.2c3.3,14.4-6.3,29-12.5,31.2c-6.9,2.4-21.8-1.7-29.8-15.6c-6.9-11.9-0.9-28.9,12.2-33
		C263.9,25.5,277.5,33.7,280.6,47.2z"/>
	<path fill="none" stroke="#659851" stroke-width="2.3748" stroke-miterlimit="10" d="M266.9,73.3c6.5,20.4,26.5,56.2,38.1,75.9"/>
	<path fill="#659851" d="M266.4,74.6l5.4,4c0,0-0.2,1.1-2.1,2.2c-2.4,1.3-3.7,0.6-3.7,0.6L266.4,74.6z"/>
</g>
<g opacity="0.45">
	<path fill="#659851" d="M311.6,36.9c-1.7,14.5-15.4,24.9-22,24.9c-7.3,0-19.7-8.8-22.6-24.3c-2.5-13.4,8.7-27.2,22.3-26.7
		C303.2,11.2,313.2,23.4,311.6,36.9z"/>
	<path fill="none" stroke="#659851" stroke-width="2.3471" stroke-miterlimit="10" d="M290.3,56.7c-0.7,21.2,6.9,74.2,20.2,123.5"/>
	<path fill="#659851" d="M289.3,57.8l3.7,5.5c0,0-0.6,1-2.7,1.4c-2.7,0.5-3.6-0.6-3.6-0.6L289.3,57.8z"/>
</g>
</svg>
