<?xml version="1.0" encoding="utf-8"?>
<!-- Generator: Adobe Illustrator 18.1.1, SVG Export Plug-In . SVG Version: 6.00 Build 0)  -->
<svg version="1.1" id="Слой_1" xmlns="http://www.w3.org/2000/svg" xmlns:xlink="http://www.w3.org/1999/xlink" x="0px" y="0px"
	 viewBox="0 251.1 593.1 343.4" enable-background="new 0 251.1 593.1 343.4" xml:space="preserve">
<rect y="251.1" fill="#0B773C" width="593.1" height="343.4"/>
<rect y="251.1" fill="#84BB3B" width="593.1" height="156.1"/>
<g opacity="0.78">
	<path fill="#659851" d="M564.1,289.5c2.9,28.9-19.3,55.2-32,57.9c-14,3.1-42.1-8.6-54.4-37.7c-10.5-25,5.3-56.6,31.8-61.7
		C536.6,243.1,561.3,262.6,564.1,289.5z"/>
	<path fill="none" stroke="#659851" stroke-width="2.3967" stroke-miterlimit="10" d="M531.1,337.1c7.8,41.6,28.9,103,62,192.8"/>
	<path fill="#659851" d="M529.5,339.7l9.6,9c0,0-0.6,2.1-4.7,3.7c-4.9,2-7.2,0.2-7.2,0.2L529.5,339.7z"/>
</g>
<g opacity="0.5">
	<path fill="#659851" d="M547.5,339.5c6.4,28.1-12.3,56.6-24.4,60.9c-13.5,4.7-42.5-3.3-58.1-30.4c-13.5-23.2-1.8-56.4,23.8-64.4
		C514.9,297.1,541.4,313.1,547.5,339.5z"/>
	<path fill="none" stroke="#659851" stroke-width="2.3748" stroke-miterlimit="10" d="M520.7,390.4c12.7,39.8,51.7,109.7,74.3,148.1
		"/>
	<path fill="#659851" d="M519.8,392.9l10.5,7.8c0,0-0.4,2.1-4.1,4.3c-4.7,2.5-7.2,1.2-7.2,1.2L519.8,392.9z"/>
</g>
<g opacity="0.45">
	<path fill="#659851" d="M608,319.4c-3.3,28.3-30,48.6-42.9,48.6c-14.2,0-38.4-17.2-44.1-47.4c-4.9-26.1,17-53.1,43.5-52.1
		C591.6,269.2,611.1,293.1,608,319.4z"/>
	<path fill="none" stroke="#659851" stroke-width="2.3471" stroke-miterlimit="10" d="M566.4,358c-1.4,41.4,13.5,144.8,39.4,241"/>
	<path fill="#659851" d="M564.5,360.2l7.2,10.7c0,0-1.2,2-5.3,2.7c-5.3,1-7-1.2-7-1.2L564.5,360.2z"/>
</g>
</svg>
