<?xml version="1.0" encoding="utf-8"?>
<!-- Generator: Adobe Illustrator 18.1.0, SVG Export Plug-In . SVG Version: 6.00 Build 0)  -->
<svg version="1.1" id="Layer_1" xmlns="http://www.w3.org/2000/svg" xmlns:xlink="http://www.w3.org/1999/xlink" x="0px" y="0px"
	 viewBox="0 0 85.2 28" enable-background="new 0 0 85.2 28" xml:space="preserve">
<path id="facebook-circle-icon_2_" fill="#F7941E" d="M42.6,0c-7.7,0-14,6.3-14,14c0,7.7,6.3,14,14,14s14-6.3,14-14
	C56.6,6.3,50.4,0,42.6,0z M46.8,8.2c0,0-1.4,0-2,0c-0.7,0-0.8,0.3-0.8,1c0,0.6,0,1.7,0,1.7h2.8l-0.3,3H44V23h-3.6v-9h-1.9V11h1.9
	c0,0,0-0.4,0-2.4c0-2.3,1.2-3.5,3.9-3.5c0.4,0,2.5,0,2.5,0V8.2L46.8,8.2z"/>
<path id="instagram-circle-icon_2_" fill="#F7941E" d="M77.9,7.9v1.7c0,0.3-0.2,0.5-0.5,0.5h-1.7c-0.3,0-0.5-0.2-0.5-0.5V7.9
	c0-0.3,0.2-0.5,0.5-0.5h1.7C77.7,7.4,77.9,7.6,77.9,7.9z M71.4,16.4c1.3,0,2.3-1,2.3-2.3c0-1.3-1-2.3-2.3-2.3c-1.3,0-2.3,1-2.3,2.3
	C69.2,15.3,70.2,16.4,71.4,16.4z M85.2,14c0,7.7-6.3,14-14,14c-7.7,0-14-6.3-14-14c0-7.7,6.3-14,14-14C79,0,85.2,6.3,85.2,14z
	 M79.3,11.7h-4.6c0.5,0.7,0.7,1.5,0.7,2.3c0,2.2-1.8,4-4,4c-2.2,0-4-1.8-4-4c0-0.9,0.3-1.7,0.7-2.3h-4.6v7.1c0,1.7,1.4,3.1,3.1,3.1
	h9.5c1.7,0,3.1-1.4,3.1-3.1V11.7z M71.4,17.2c1.7,0,3.1-1.4,3.1-3.1c0-0.9-0.4-1.8-1.1-2.3c-0.2-0.2-0.5-0.4-0.8-0.5
	c-0.4-0.2-0.8-0.3-1.3-0.3c-0.5,0-0.9,0.1-1.3,0.3c-0.3,0.1-0.5,0.3-0.8,0.5c-0.6,0.6-1.1,1.4-1.1,2.3
	C68.3,15.8,69.7,17.2,71.4,17.2z M79.3,9.2c0-1.7-1.4-3.1-3.1-3.1h-8.5V10h-0.6V6.1h-0.4c0,0,0,0-0.1,0V10H66V6.2
	c-0.2,0-0.3,0.1-0.4,0.1V10h-0.6V6.7c-0.8,0.6-1.3,1.5-1.3,2.5v2h5c0.7-0.7,1.7-1.2,2.9-1.2c1.1,0,2.1,0.5,2.9,1.2h5V9.2L79.3,9.2z"
	/>
<path id="youtube-4-icon_2_" fill="#F7941E" d="M16.2,16.1c-0.3,0-0.6,0.2-0.8,0.4v-2.1h-0.9v6.5h0.9v-0.4c0.2,0.3,0.5,0.4,0.8,0.4
	c0.6,0,0.8-0.5,0.8-1.1v-2.7C17,16.7,16.8,16.1,16.2,16.1z M16.1,19.8c0,0.2,0,0.3-0.1,0.3c-0.1,0.1-0.3,0.1-0.5,0
	c-0.1,0-0.1-0.1-0.2-0.2v-3c0.1-0.1,0.1-0.1,0.2-0.1c0.2-0.1,0.4-0.1,0.5,0.1c0.1,0.1,0.1,0.2,0.1,0.4V19.8L16.1,19.8z M13.1,10.4
	V8.1c0-0.3,0.1-0.5,0.4-0.5c0.3,0,0.4,0.2,0.4,0.5v2.3c0,0.3-0.1,0.5-0.4,0.5C13.3,10.9,13.1,10.7,13.1,10.4z M12.7,16.2h0.9v4.8
	h-0.9v-0.5c-0.2,0.2-0.3,0.3-0.5,0.4c-0.5,0.3-1.1,0.3-1.1-0.7v-4h0.9v3.7c0,0.2,0,0.3,0.2,0.3c0.2,0,0.4-0.2,0.5-0.4V16.2z
	 M11.1,15.4h-1v5.5H9v-5.5H8v-0.9h3.1V15.4L11.1,15.4z M19,16c-0.8,0-1.4,0.6-1.4,1.4v2.1c0,0.9,0.4,1.5,1.3,1.5
	c0.9,0,1.3-0.6,1.3-1.5v-0.4h-0.9v0.3c0,0.4,0,0.7-0.4,0.7c-0.4,0-0.4-0.3-0.4-0.7v-0.9h1.7v-1.2C20.3,16.6,19.9,16,19,16z
	 M19.4,17.9h-0.8v-0.5c0-0.3,0.1-0.6,0.4-0.6c0.3,0,0.4,0.2,0.4,0.6V17.9L19.4,17.9z M14,0C6.3,0,0,6.3,0,14c0,7.7,6.3,14,14,14
	c7.7,0,14-6.3,14-14C28,6.3,21.7,0,14,0z M15.6,6.7h0.9v3.8c0,0.2,0,0.3,0.3,0.3c0.2,0,0.4-0.2,0.5-0.4V6.7h0.9v5h-0.9v-0.6
	c-0.4,0.5-0.8,0.6-1.1,0.6c-0.5,0-0.7-0.4-0.7-0.9V6.7L15.6,6.7z M13.5,6.7c0.8,0,1.3,0.6,1.3,1.3v2.5c0,0.8-0.6,1.3-1.3,1.3
	c-0.9,0-1.4-0.5-1.4-1.3V8C12.1,7.2,12.7,6.7,13.5,6.7z M9.7,4.9l0.7,2.7l0.7-2.7h1.1L11,9v2.8H9.9V9l-1.3-4H9.7z M21.7,20.4
	c0,1.2-1,2.1-2.1,2.1h-11c-1.2,0-2.1-1-2.1-2.1V15c0-1.2,1-2.1,2.1-2.1h11c1.2,0,2.1,1,2.1,2.1V20.4z"/>
</svg>
